<?xml version="1.0" encoding="iso-8859-1"?>
<!-- Generator: Adobe Illustrator 18.0.0, SVG Export Plug-In . SVG Version: 6.00 Build 0)  -->
<!DOCTYPE svg PUBLIC "-//W3C//DTD SVG 1.1//EN" "http://www.w3.org/Graphics/SVG/1.1/DTD/svg11.dtd" [
	<!ENTITY ns_flows "http://ns.adobe.com/Flows/1.0/">
	<!ENTITY ns_extend "http://ns.adobe.com/Extensibility/1.0/">
	<!ENTITY ns_ai "http://ns.adobe.com/AdobeIllustrator/10.0/">
	<!ENTITY ns_graphs "http://ns.adobe.com/Graphs/1.0/">
	<!ENTITY ns_vars "http://ns.adobe.com/Variables/1.0/">
	<!ENTITY ns_imrep "http://ns.adobe.com/ImageReplacement/1.0/">
	<!ENTITY ns_sfw "http://ns.adobe.com/SaveForWeb/1.0/">
	<!ENTITY ns_custom "http://ns.adobe.com/GenericCustomNamespace/1.0/">
	<!ENTITY ns_adobe_xpath "http://ns.adobe.com/XPath/1.0/">
]>
<svg version="1.1" id="Layer_1" xmlns:x="&ns_extend;" xmlns:i="&ns_ai;" xmlns:graph="&ns_graphs;"
	 xmlns="http://www.w3.org/2000/svg" xmlns:xlink="http://www.w3.org/1999/xlink" xmlns:a="http://ns.adobe.com/AdobeSVGViewerExtensions/3.0/"
	 x="0px" y="0px" viewBox="0 0 122.9 64.3" enable-background="new 0 0 122.9 64.3" xml:space="preserve">
<metadata>
	<sfw  xmlns="&ns_sfw;">
		<slices></slices>
		<sliceSourceBounds  height="64.3" width="122.9" bottomLeftOrigin="true" x="328.6" y="-252.6"></sliceSourceBounds>
	</sfw>
</metadata>
<g>
	<path fill="#FFFFFF" d="M40,16.9c0,0.7,0,1.4,0,2.1c0.1,7-2.7,10.9-8.3,12.2c-5.7,1.3-8.7-1.5-9.1-8.6c0-0.7-0.1-1.4-0.1-2.1
		C22.1,13.3,25,9.1,31,8C37,6.9,40,10,40,16.9z M29.2,19c0,0.7,0.1,1.4,0.1,2.1c0.1,2.8,0.9,4.1,2.3,3.8c1.4-0.3,2.1-1.8,2-4.7
		c0-0.7,0-1.4-0.1-2.1c-0.1-2.8-0.9-4.1-2.3-3.8C29.7,14.5,29.1,16.1,29.2,19z"/>
	<path fill="#FFFFFF" d="M58.5,13.3c0,0.7,0,1.3-0.1,2c-0.2,6.7-3,10.4-8.4,11.3c-5.5,0.9-8.3-2-8.4-8.9c0-0.7,0-1.4,0-2.1
		c-0.1-6.9,2.8-10.9,8.6-11.6C56,3.4,58.7,6.5,58.5,13.3z M48.1,14.6c0,0.7,0,1.4,0,2.1c0,2.7,0.7,4,2.1,3.8
		c1.4-0.2,2.1-1.7,2.1-4.4c0-0.7,0-1.4,0-2c0-2.8-0.7-4-2.1-3.9C48.8,10.3,48.1,11.8,48.1,14.6z"/>
	<path fill="#FFFFFF" d="M60.6,4.8c0-1.4,1-2.2,2.9-2.5c1-0.1,2-0.3,3-0.4c6.5-0.8,9.7,1.2,9.6,5.8c0,1.8-0.6,3.3-1.5,4.5
		c0.9,1,1.4,2.4,1.3,4.1c-0.1,4.6-3.3,7.3-9.4,8.4c-0.9,0.2-1.9,0.3-2.8,0.5c-1.9,0.3-2.8-0.1-2.9-1.5C60.7,17.4,60.7,11.1,60.6,4.8
		z M66.5,7.2c0,1.2,0,2.3,0,3.5c0.2,0,0.4-0.1,0.6-0.1c2.2-0.4,3.3-1.1,3.3-2.2C70.4,7.3,69.1,6.8,66.5,7.2z M66.5,16
		c0,1.2,0,2.3,0,3.5c2.5-0.4,3.8-1.2,3.8-2.3c0-1.1-1.1-1.5-3.2-1.2C66.9,15.9,66.7,16,66.5,16z"/>
	<path fill="#FFFFFF" d="M100.9,15.1c-0.1,1.5-0.3,3-0.4,4.4c-0.1,1.3-1,2-2.8,2.1c-1.7,0.1-2.6-0.5-2.5-1.8
		c0.5-6,0.9-11.9,1.4-17.9c0.1-1.3,1.1-1.9,2.9-2c0.9,0,1.8,0,2.8,0c6,0,8.8,2.4,8.3,6.7c-0.3,3.1-2.1,5.1-5.2,6
		c2,3.4,3.4,5.3,4.3,5.6c1,0.4,1.3,1.2,1.1,2.4c-0.2,1.3-0.9,2.1-2.1,2.5c-2,0.2-3.6-0.6-4.9-2.4C102.6,19,101.7,17.1,100.9,15.1z
		 M101.8,5c-0.1,1.1-0.2,2.2-0.3,3.3c2.4,0,3.6-0.6,3.7-1.7C105.4,5.5,104.2,5,101.8,5z"/>
	<path fill="#FFFFFF" d="M34.8,50.9C27.9,52.5,24.3,50.7,24,45c-0.3-5.6,3.2-9.4,10.4-10.8c1.1-0.2,2.2-0.4,3.2-0.6
		c2.1-0.4,3.1,0.1,3.2,1.4c0,5.5,0.1,11,0.1,16.5c0,6.9-2.6,10.9-7.9,12.3c0,0,0,0,0,0c-5.4,1.4-8.2-0.6-8.5-6.2
		c0.1-1.4,1.1-2.4,3.2-3c2.1-0.5,3.1-0.1,3.2,1.3c-0.1,1.4,0.6,2,2,1.6c0,0,0,0,0,0c1.3-0.3,2-1.9,1.9-4.7
		C34.8,52.2,34.8,51.6,34.8,50.9z M34.6,40.4c-2.8,0.6-4.2,1.6-4.2,3c0,1.4,1.5,1.8,4.3,1.1C34.6,43.2,34.6,41.8,34.6,40.4z"/>
	<path fill="#FFFFFF" d="M59.3,48.4c-0.1,1.3-1,2.2-3,2.5c-2,0.3-2.9-0.1-2.9-1.5c0-1.4,0.1-2.7,0.1-4.1c-1.3,0.2-2.7,0.5-4,0.7
		c0,0.7,0,1.4,0,2c0,1.4-1,2.2-3,2.6c-2,0.4-3,0-3-1.4c0-2.8,0-5.5,0-8.3c0-6.9,2.8-10.8,8.4-11.7c5.5-0.8,8.1,2.2,7.9,8.9
		C59.6,41.7,59.4,45.1,59.3,48.4z M49.6,40c1.4-0.2,2.7-0.5,4.1-0.7c0.1-2.7-0.6-4-2-3.7C50.3,35.8,49.6,37.2,49.6,40z"/>
	<path fill="#FFFFFF" d="M81.1,46.3c-0.4-1.9-0.4-5.4,0-10.6c0.2-2.6-0.3-3.9-1.6-3.8c-1.3,0.1-2,1.5-2.2,4.1
		c-0.3,3.3-0.5,6.5-0.8,9.8c-0.1,1.3-1.1,2.1-3,2.3c-1.9,0.2-2.8-0.3-2.7-1.6c0.2-3.3,0.4-6.6,0.6-9.9c0.2-2.6-0.4-3.9-1.7-3.8
		c-1.3,0.1-2.1,1.5-2.2,4.2c-0.1,2.7-0.3,5.3-0.4,8c-0.1,1.3-1.1,2.1-3,2.4c-1.9,0.3-2.9-0.2-2.8-1.5c0.1-2.7,0.2-5.4,0.3-8.1
		c0.3-6.7,3.1-10.4,8.5-10.9c2.1-0.2,3.7,0.2,4.9,1c1.3-1.1,3-1.7,5-1.8c5.2-0.3,7.4,2.8,6.8,9.2c-0.5,5.1-0.5,8.3-0.1,9.6
		c0.5,1.2,1.4,2.1,2.8,2.5c1,0.3,1.4,1.1,1.2,2.3c-0.2,1.3-1,2.1-2.2,2.6c-2.1,0.4-3.8-0.1-5.1-1.4C82.3,49.7,81.6,48.2,81.1,46.3z"
		/>
	<path fill="#FFFFFF" d="M103.4,25.5c1.1,0,1.5,0.9,1.3,2.7c-0.2,1.8-0.9,2.7-2,2.7c-2.2,0-4.4,0.1-6.7,0.2c-0.8,0-1.4,0.6-1.7,1.9
		c2.2-0.1,4.3-0.2,6.5-0.3c1.1,0,1.5,0.9,1.3,2.7c-0.2,1.8-0.9,2.7-2,2.8c-2.1,0.1-4.3,0.2-6.4,0.3c0.1,1.2,0.5,1.8,1.3,1.7
		c2.2-0.1,4.4-0.2,6.5-0.3c1.1,0,1.5,0.8,1.3,2.7c-0.2,1.8-0.9,2.7-1.9,2.8c-2.1,0.1-4.3,0.2-6.4,0.4c-4.4,0.3-6.3-2.5-5.7-8.7
		c0.1-0.6,0.1-1.2,0.2-1.9c0.6-6.2,3.2-9.5,7.7-9.6C98.9,25.6,101.1,25.5,103.4,25.5z"/>
	<path fill="#FFFFFF" d="M92.7,0.2c1.2-0.1,1.7,0.9,1.6,2.8c-0.1,1.9-0.8,2.9-1.9,3c-2.3,0.1-4.7,0.3-7,0.5c-0.8,0-1.4,0.7-1.7,2.1
		c2.3-0.2,4.6-0.4,6.8-0.5c1.2-0.1,1.7,0.9,1.6,2.8c-0.1,1.9-0.7,3-1.9,3c-2.3,0.2-4.5,0.4-6.8,0.6c0.2,1.3,0.7,1.9,1.5,1.8
		c2.3-0.2,4.6-0.4,6.8-0.6c1.1-0.1,1.6,0.8,1.5,2.8c-0.1,1.9-0.7,2.9-1.9,3c-2.3,0.2-4.5,0.4-6.8,0.7c-4.6,0.6-6.8-2.4-6.6-9
		c0-0.7,0-1.3,0.1-2C78.4,4.6,80.9,1,85.7,0.7C88,0.5,90.4,0.3,92.7,0.2z"/>
	<g>
		<path fill="#FFFFFF" d="M115.8,25.1c-2.8-0.1-5.1,0.5-6.9,1.9c-1.6,1.3-2.6,3-2.9,5.2c-0.2,1.3,0,2.5,0.5,3.5
			c0.6,1,1.7,1.9,3.3,2.6c0.4,0.2,1.1,0.4,1.9,0.7c0.7,0.3,1.3,0.5,1.6,0.6c1.8,0.5,2.7,1,2.6,1.5c-0.2,1-0.9,1.5-2.1,1.5l-0.1,0
			c-1.6,0-2.8-0.4-3.5-1.3c-0.7-0.8-1.4-1.2-2.1-1.2c-2.1,0-3.2,1-3.5,3.1c-0.2,1.3,0.3,2.6,1.5,3.7c1.3,1.3,3.1,1.9,5.4,1.9h0.1
			c2.7,0,4.9-0.7,6.6-2.2c1.6-1.3,2.6-3.2,3-5.4c0.2-1.4,0.1-2.7-0.3-3.8c-0.2-0.3-0.3-0.5-0.5-0.7c-0.2-0.2-0.5-0.5-0.8-0.7
			c-0.4-0.3-1-0.6-1.8-1c-0.5-0.2-1.1-0.4-1.9-0.7c-0.9-0.3-1.4-0.5-1.6-0.6c-1.9-0.4-2.8-0.9-2.7-1.4c0.1-0.9,0.9-1.4,2.2-1.4
			c1.6,0,2.8,0.5,3.6,1.3c0.7,0.7,1.4,1.1,2.2,1.2c2,0.1,3.2-0.7,3.5-2.6c0.2-1.2-0.3-2.4-1.4-3.5C120,25.9,118.1,25.2,115.8,25.1z"
			/>
	</g>
	<path fill="#FFFFFF" d="M13.2,28.7c-0.4,1.2-1,2-3.3,2c-2.4-0.1-2.5-1.8-2.9-8.1c-0.3-3.8-0.2-7,2.4-7.5c0.3-0.2,2.3-0.2,2.3,0.9
		c0.1,2.1,0.5,3.2,3.2,2.6c2.9-0.6,5-1.5,4.8-3.6l0-0.1c-0.5-7.6-8-8.2-12-6.4C2.6,10.7-0.1,15,0,21.3l0.1,2.8
		c0.4,9.7,3.2,14.4,10,13.9l0,0l0-0.1c7.5-0.6,11.3-5.5,10.6-14.6l0-0.1c-0.2-1.9-1.4-2.7-3.7-2.5l0,0l0,0c-0.3,0-0.5,0.1-0.8,0.1
		l-5,0.8c0,0-1.7,0.3-1.4,2.1c0.4,3.1-0.6,4.7,3.4,3.7C13.4,27.4,13.8,27.4,13.2,28.7z"/>
</g>
</svg>
